<?xml version="1.0" encoding="UTF-8"?>
<!DOCTYPE svg PUBLIC "-//W3C//DTD SVG 1.1//EN" "http://www.w3.org/Graphics/SVG/1.1/DTD/svg11.dtd">
<!-- Creator: CorelDRAW -->
<svg xmlns="http://www.w3.org/2000/svg" xml:space="preserve" width="609.6mm" height="609.6mm" version="1.1" style="shape-rendering:geometricPrecision; text-rendering:geometricPrecision; image-rendering:optimizeQuality; fill-rule:evenodd; clip-rule:evenodd"
viewBox="0 0 60960 60960"
 xmlns:xlink="http://www.w3.org/1999/xlink"
 xmlns:xodm="http://www.corel.com/coreldraw/odm/2003">
 <defs>
  <style type="text/css">
   <![CDATA[
    .fil0 {fill:#256EE2}
   ]]>
  </style>
 </defs>
 <g id="Слой_x0020_1">
  <metadata id="CorelCorpID_0Corel-Layer"/>
  <g id="_1993094261488">
   <path class="fil0" d="M42641.13 13766.38l150.75 108.21c-17.73,-12.54 -197.92,-68.18 -150.75,-108.21zm-31994.08 9943.65c647.57,605.66 9998.94,5156.42 11072.97,5221.82 1643.05,-885.17 3596.37,-2636.77 5158.54,-3770.38 1708.57,-1239.99 3436.06,-2456.59 5185.42,-3713.25 1773.14,-1273.57 3399.99,-2411.38 5196.53,-3723.36 1215.33,-887.54 3902.61,-3401.24 5488.69,-3658.86 -454.7,1465.58 -4160.82,4536.74 -5498.93,5891.59 -5052.77,5115.92 -12772.51,11601.35 -17197.12,17042.53l3414.56 225.11c-337.11,1183.5 -1179.79,1888.34 -2075.19,3211.38l-2167.48 3333.97 9534.84 -6592.3c223.58,-151.68 443.85,-240.19 758.1,-474.96 57.96,-43.39 224.96,-171.92 273.54,-218.82 296.11,-285.16 136.87,-126.84 315.09,-412.44 -445.93,-162.65 -665.92,-144.71 -1166.76,-257.27l-1196.61 -484.49c357.22,-1167.39 887.83,-1572.06 1888.49,-1956.96 2469.75,718.01 5700.35,3363.12 8406.22,4250.94 771.05,-738.26 1513.11,-2797.68 2035.73,-3967.93 1889.73,-4230.48 12738.66,-27194.82 13115.57,-28833.09 -1620.63,393.65 -8667.07,3682.91 -10858.59,4638.92 -3467.26,1512.49 -6937.96,3186.72 -10614.08,4716.72 -3597.2,1497.05 -7076.44,3108.49 -10620.94,4702.9 -2014.91,906.4 -9316.96,3863.24 -10448.59,4828.23z"/>
   <path class="fil0" d="M53325 9852.06c-2359.17,5316.71 -367.59,2572.36 -2.94,7195.64 212.35,2690.46 300.52,17111.85 -440.35,19024.02 -891.46,2300.91 -2737.47,4005.35 -5241.85,4660.3 -2524.97,660.4 -15647.29,283.62 -19246.31,230.15 -3162.96,-47.02 -2958.87,641.2 -6775.71,3168.43 -1176.99,779.33 -4929.08,3604.14 -5994.13,3753.07l-160.01 -6678.24c-1877.62,-378.38 -2803.71,-216.84 -4312.75,-747.73 -1283.53,-451.54 -2182.85,-1153.65 -2946.89,-1999.27 -2079.54,-2301.07 -1865.77,-4538.5 -1881.13,-8320.16 -13.39,-3296.47 1.89,-6593.07 -6.44,-9889.61 -19.83,-7951.87 1906.41,-10266.67 9964.32,-10243.05 2481.88,7.29 18725.93,168.13 19824.92,-117.74 848.64,-220.63 6307.13,-2762.23 6852.39,-3191.41 -7570.47,29.71 -15149.34,1.67 -22721.57,2.23 -3525.5,0.23 -7501.21,-374.31 -10521.35,809.97 -7665.5,3005.9 -6741.01,10279.84 -6734.58,16201.37 8.49,7684.21 -1750.48,17530.1 8187.5,20188.86 2130.33,569.92 716.46,1243.85 1126.8,4789.97 180.34,1558.31 1371.12,2699.48 2996.94,2783.66 1599.3,82.69 2952.35,-1118.05 3989.67,-1779.16 2228.72,-1420.53 4502.04,-3206.55 6710.18,-4653.7 1807.67,-1184.77 2278.7,-808.35 4876.23,-797.7 3590.61,14.64 15047.92,235.27 17088.07,-230.65 3353.02,-765.52 5387.15,-2420.91 6819.09,-4549.42 1991.65,-2960.36 1831.37,-5604.97 1832.36,-9817.98 1.04,-4239.39 519.52,-13005.63 -818.03,-16260.12 -550.36,-1339.08 -1384.99,-3015.43 -2464.43,-3531.73z"/>
  </g>
 </g>
</svg>
