<?xml version="1.0" encoding="UTF-8"?>
<!DOCTYPE svg PUBLIC "-//W3C//DTD SVG 1.1//EN" "http://www.w3.org/Graphics/SVG/1.1/DTD/svg11.dtd">
<!-- Creator: CorelDRAW -->
<svg xmlns="http://www.w3.org/2000/svg" xml:space="preserve" width="457.2mm" height="609.6mm" version="1.1" style="shape-rendering:geometricPrecision; text-rendering:geometricPrecision; image-rendering:optimizeQuality; fill-rule:evenodd; clip-rule:evenodd"
viewBox="0 0 45720 60960"
 xmlns:xlink="http://www.w3.org/1999/xlink"
 xmlns:xodm="http://www.corel.com/coreldraw/odm/2003">
 <defs>
  <style type="text/css">
   <![CDATA[
    .fil0 {fill:#256EE2}
   ]]>
  </style>
 </defs>
 <g id="Слой_x0020_1">
  <metadata id="CorelCorpID_0Corel-Layer"/>
  <g id="_1993094261488">
   <path class="fil0" d="M30671.42 12715.38l88.33 63.4c-10.39,-7.35 -115.97,-39.95 -88.33,-63.4zm-18746.06 5826.21c379.43,354.87 5858.61,3021.26 6487.91,3059.58 962.7,-518.64 2107.19,-1544.94 3022.5,-2209.15 1001.09,-726.54 2013.27,-1439.37 3038.26,-2175.68 1038.92,-746.21 1992.13,-1412.88 3044.76,-2181.6 712.09,-520.03 2286.63,-1992.86 3215.95,-2143.81 -266.42,858.72 -2437.92,2658.18 -3221.95,3452.02 -2960.53,2997.53 -7483.7,6797.49 -10076.18,9985.6l2000.67 131.9c-197.52,693.44 -691.27,1106.42 -1215.9,1881.62l-1269.98 1953.45 5586.68 -3862.58c131,-88.87 260.06,-140.73 444.19,-278.29 33.96,-25.42 131.81,-100.73 160.27,-128.21 173.5,-167.08 80.2,-74.32 184.62,-241.66 -261.28,-95.3 -390.18,-84.79 -683.63,-150.74l-701.12 -283.87c209.3,-684 520.2,-921.11 1106.51,-1146.63 1447.08,420.7 3339.96,1970.53 4925.39,2490.72 451.78,-432.56 886.57,-1639.22 1192.78,-2324.9 1107.24,-2478.73 7463.87,-15934.06 7684.71,-16893.96 -949.56,230.65 -5078.23,2157.9 -6362.29,2718.05 -2031.55,886.2 -4065.11,1867.17 -6219.03,2763.63 -2107.68,877.16 -4146.25,1821.34 -6223.05,2755.54 -1180.58,531.08 -5459.02,2263.56 -6122.07,2828.97z"/>
   <path class="fil0" d="M36931.34 10421.89c-1382.29,3115.18 -215.38,1507.2 -1.72,4216.09 124.42,1576.4 176.08,10026.22 -258.01,11146.6 -522.33,1348.16 -1603.95,2346.83 -3071.32,2730.58 -1479.44,386.94 -9168.1,166.18 -11276.85,134.85 -1853.25,-27.55 -1733.67,375.69 -3970.04,1856.45 -689.63,456.63 -2888.06,2111.75 -3512.1,2199.01l-93.75 -3912.93c-1100.14,-221.7 -1642.76,-127.05 -2526.94,-438.11 -752.05,-264.57 -1278.98,-675.95 -1726.65,-1171.42 -1218.45,-1348.25 -1093.2,-2659.21 -1102.2,-4874.97 -7.84,-1931.48 1.11,-3863.03 -3.77,-5794.55 -11.62,-4659.18 1117.01,-6015.47 5838.32,-6001.63 1454.19,4.27 10971.95,98.51 11615.87,-68.99 497.24,-129.27 3695.49,-1618.45 4014.97,-1869.92 -4435.71,17.41 -8876.34,0.98 -13313.08,1.31 -2065.67,0.13 -4395.13,-219.32 -6164.7,474.58 -4491.39,1761.22 -3949.71,6023.19 -3945.94,9492.75 4.97,4502.35 -1025.65,10271.28 4797.24,11829.11 1248.21,333.93 419.79,728.8 660.22,2806.55 105.66,913.05 803.37,1581.69 1755.97,1631.01 937.07,48.45 1729.85,-655.09 2337.64,-1042.45 1305.86,-832.32 2637.85,-1878.79 3931.65,-2726.71 1059.15,-694.18 1335.14,-473.63 2857.09,-467.39 2103.82,8.58 8816.92,137.85 10012.29,-135.14 1964.61,-448.54 3156.45,-1418.47 3995.46,-2665.61 1166.95,-1734.54 1073.04,-3284.08 1073.62,-5752.58 0.61,-2483.95 304.4,-7620.29 -479.3,-9527.17 -322.47,-784.6 -811.5,-1766.81 -1443.97,-2069.32z"/>
  </g>
 </g>
</svg>
